HIERARCHY
ROOT Hip
{
	OFFSET 0 1.131 0.0052
	CHANNELS 6 Xposition Yposition Zposition Xrotation Yrotation Zrotation
	JOINT Abdomen
	{
		OFFSET 0 -0.047353 -0.05
		CHANNELS 3 Xrotation Zrotation Yrotation
		JOINT Chest
		{
			OFFSET 0 0.132153 0.007439
			CHANNELS 3 Xrotation Zrotation Yrotation
			JOINT Neck
			{
				OFFSET 0 0.3078 0.006161
				CHANNELS 3 Xrotation Zrotation Yrotation
				JOINT Head_comp
				{
					OFFSET 0 0.0884 0.013
					CHANNELS 3 Xrotation Yrotation Zrotation
					End Site
					{
						OFFSET -0 0.156 0.0624
					}
				}
			}
			JOINT Left_Collar
			{
				OFFSET 0.02282 0.250342 0.017193
				CHANNELS 2 Yrotation Zrotation
				JOINT Left_Shoulder
				{
					OFFSET 0.15421 0 0
					CHANNELS 3 Xrotation Yrotation Zrotation
					JOINT Left_Forearm
					{
						OFFSET 0.265212 0 0
						CHANNELS 2 Yrotation Xrotation
						JOINT Left_Hand
						{
							OFFSET 0.27571 0 0
							CHANNELS 2 Zrotation Yrotation
							JOINT L1ProxPhalanx
							{
								OFFSET 0.014142 0.001733 0.014142
								CHANNELS 3 Yrotation Zrotation Xrotation
								JOINT L1MidPhalanx
								{
									OFFSET 0.04 0 0
									CHANNELS 1 Zrotation
									JOINT L1DistPhalanx
									{
										OFFSET 0.035 0 0
										CHANNELS 1 Zrotation
										End Site
										{
											OFFSET 0.029 -0 -0
										}
									}
								}
							}
							JOINT L2ProxPhalanx
							{
								OFFSET 0.0821037 0.001578 0.0219996
								CHANNELS 2 Yrotation Zrotation
								JOINT L2MidPhalanx
								{
									OFFSET 0.04 0 0
									CHANNELS 1 Zrotation
									JOINT L2DistPhalanx
									{
										OFFSET 0.028 0 0
										CHANNELS 1 Zrotation
										End Site
										{
											OFFSET 0.02 -0 -0
										}
									}
								}
							}
							JOINT L3ProxPhalanx
							{
								OFFSET 0.083 0 0
								CHANNELS 2 Yrotation Zrotation
								JOINT L3MidPhalanx
								{
									OFFSET 0.053 0 0
									CHANNELS 1 Zrotation
									JOINT L3DistPhalanx
									{
										OFFSET 0.03 0 0
										CHANNELS 1 Zrotation
										End Site
										{
											OFFSET 0.023 -0 -0
										}
									}
								}
							}
							JOINT L4ProxPhalanx
							{
								OFFSET 0.077274 -0.000761 -0.0207055
								CHANNELS 2 Yrotation Zrotation
								JOINT L4MidPhalanx
								{
									OFFSET 0.05 0 0
									CHANNELS 1 Zrotation
									JOINT L4DistPhalanx
									{
										OFFSET 0.03 0 0
										CHANNELS 1 Zrotation
										End Site
										{
											OFFSET 0.023 -0 -0
										}
									}
								}
							}
							JOINT L5ProxPhalanx
							{
								OFFSET 0.0675499 -0.001644 -0.039
								CHANNELS 2 Yrotation Zrotation
								JOINT L5MidPhalanx
								{
									OFFSET 0.04 0 0
									CHANNELS 1 Zrotation
									JOINT L5DistPhalanx
									{
										OFFSET 0.021 0 0
										CHANNELS 1 Zrotation
										End Site
										{
											OFFSET 0.022 -0 -0
										}
									}
								}
							}
						}
					}
				}
			}
			JOINT Right_Collar
			{
				OFFSET -0.02282 0.250342 0.017193
				CHANNELS 2 Yrotation Zrotation
				JOINT Right_Shoulder
				{
					OFFSET -0.15421 0 0
					CHANNELS 3 Xrotation Yrotation Zrotation
					JOINT Right_Forearm
					{
						OFFSET -0.265212 0 0
						CHANNELS 2 Yrotation Xrotation
						JOINT Right_Hand
						{
							OFFSET -0.27571 3e-006 0
							CHANNELS 2 Zrotation Yrotation
							JOINT R1ProxPhalanx
							{
								OFFSET -0.014142 0.001733 0.014142
								CHANNELS 3 Yrotation Zrotation Xrotation
								JOINT R1MidPhalanx
								{
									OFFSET -0.04 0 0
									CHANNELS 1 Zrotation
									JOINT R1DistPhalanx
									{
										OFFSET -0.035 0 0
										CHANNELS 1 Zrotation
										End Site
										{
											OFFSET -0.029 -0 -0
										}
									}
								}
							}
							JOINT R2ProxPhalanx
							{
								OFFSET -0.0821037 0.001578 0.0219996
								CHANNELS 2 Yrotation Zrotation
								JOINT R2MidPhalanx
								{
									OFFSET -0.04 0 0
									CHANNELS 1 Zrotation
									JOINT R2DistPhalanx
									{
										OFFSET -0.028 0 0
										CHANNELS 1 Zrotation
										End Site
										{
											OFFSET -0.02 -0 -0
										}
									}
								}
							}
							JOINT R3ProxPhalanx
							{
								OFFSET -0.083 0 0
								CHANNELS 2 Yrotation Zrotation
								JOINT R3MidPhalanx
								{
									OFFSET -0.053 0 0
									CHANNELS 1 Zrotation
									JOINT R3DistPhalanx
									{
										OFFSET -0.03 0 0
										CHANNELS 1 Zrotation
										End Site
										{
											OFFSET -0.023 -0 -0
										}
									}
								}
							}
							JOINT R4ProxPhalanx
							{
								OFFSET -0.077274 -0.000761 -0.0207055
								CHANNELS 2 Yrotation Zrotation
								JOINT R4MidPhalanx
								{
									OFFSET -0.05 0 0
									CHANNELS 1 Zrotation
									JOINT R4DistPhalanx
									{
										OFFSET -0.03 0 0
										CHANNELS 1 Zrotation
										End Site
										{
											OFFSET -0.023 -0 -0
										}
									}
								}
							}
							JOINT R5ProxPhalanx
							{
								OFFSET -0.0675499 -0.001644 -0.039
								CHANNELS 2 Yrotation Zrotation
								JOINT R5MidPhalanx
								{
									OFFSET -0.04 0 0
									CHANNELS 1 Zrotation
									JOINT R5DistPhalanx
									{
										OFFSET -0.021 0 0
										CHANNELS 1 Zrotation
										End Site
										{
											OFFSET -0.022 -0 -0
										}
									}
								}
							}
						}
					}
				}
			}
		}
	}
	JOINT Left_Thigh
	{
		OFFSET 0.1118 -0.1612 -0.0442
		CHANNELS 3 Xrotation Zrotation Yrotation
		JOINT Left_Shin
		{
			OFFSET 0 -0.477856 0
			CHANNELS 1 Xrotation
			JOINT Left_Foot
			{
				OFFSET 0 -0.431952 0
				CHANNELS 2 Xrotation Zrotation
				JOINT Left_Toe
				{
					OFFSET 0 -0.0442 0.119
					CHANNELS 1 Xrotation
					End Site
					{
						OFFSET -0 -0 0.07
					}
				}
			}
		}
	}
	JOINT Right_Thigh
	{
		OFFSET -0.1118 -0.1612 -0.0442
		CHANNELS 3 Xrotation Zrotation Yrotation
		JOINT Right_Shin
		{
			OFFSET 0 -0.477856 0
			CHANNELS 1 Xrotation
			JOINT Right_Foot
			{
				OFFSET 0 -0.431952 0
				CHANNELS 2 Xrotation Zrotation
				JOINT Right_Toe
				{
					OFFSET 0 -0.0442 0.119
					CHANNELS 1 Xrotation
					End Site
					{
						OFFSET -0 -0 0.07
					}
				}
			}
		}
	}
}
MOTION
Frames: 16
Frame Time: 0.009975
-0.102749 -0.060085 0.0483458 1.17685e-013 5.24898e-008 -5.10931e-006 0 0 0 0 0 0 0 0 0 0 0 0 0 0 -0 0 -0 0 0 0 0 -40.5316 -43.5896 103.283 -7.10789 -4.81548 2.69559 -7.40342 -2.98992 -6.72733 5.89092 0.508958 -5.4973 -5.3917 11.1257 1.19015 -12.1062 -9.35422 19.4153 3.33565 -41.2194 -1.46018 0 0 -0 0 -0 0 0 0 0 37.9386 28.008 73.698 26.2405 28.4472 13.118 18.2167 29.0248 19.6359 0 22.4358 32.6146 28.1246 -8.63175 30.7051 32.2053 23.7634 -7.83088 26.7354 35.1526 30.0193 0.577194 -0.57002 -0.0057425 0.0240216 -0.601187 0.570054 0 0.5886 -0.570019 -0.00585597 2.41484e-006 -0.588573 0.570054 0 
-0.102749 -0.060085 0.0483458 1.17685e-013 5.24898e-008 -5.10931e-006 0 0 0 0 0 0 0 0 0 0 0 0 0 0 -0 0 -0 0 0 0 0 -40.5316 -43.5896 103.283 -7.10789 -4.81548 2.69559 -7.40342 -2.98992 -6.72733 5.89092 0.508958 -5.4973 -5.3917 11.1257 1.19015 -12.1062 -9.35422 19.4153 3.33565 -41.2194 -1.46018 0 0 -0 0 -0 0 0 0 0 37.9386 28.008 73.698 26.2405 28.4472 13.118 18.2167 29.0248 19.6359 0 22.4358 32.6146 28.1246 -8.63175 30.7051 32.2053 23.7634 -7.83088 26.7354 35.1526 30.0193 0.577194 -0.57002 -0.0057425 0.0240216 -0.601187 0.570054 0 0.5886 -0.570019 -0.00585597 2.41484e-006 -0.588573 0.570054 0 
-0.101405 -0.0600538 0.0370355 6.53742e-012 -1.1034e-008 -5.0841e-006 0 -0 0 0 -0 0 0 -0 0 -0.710178 0.291047 -9.06421e-006 -4.3768 -23.5549 -19.0771 -24.8 -31.1998 -70.556 3.66068 5.08788 6.13131 -40.6385 -43.5109 103.135 -7.24735 -4.8914 2.67736 -7.51636 -3.17497 -6.76869 5.86226 0.346656 -5.66981 -5.45475 11.0789 1.02468 -12.2457 -9.39745 19.3495 3.19963 -41.1833 -1.55288 4.3768 23.5549 -19.0771 24.8 31.1998 70.556 3.66068 -5.08788 -6.13131 40.6385 43.5109 103.135 7.24735 4.8914 -2.67736 7.51636 3.17497 6.76869 -5.86226 -0.346656 5.66981 5.45475 -11.0789 -1.02468 12.2457 9.39745 -19.3495 -3.19963 41.1833 1.55288 -0.135076 -0.654615 0.00154712 0.0239015 0.111165 0.654622 0 -0.123729 -0.654615 0.00141716 2.81749e-006 0.123718 0.654622 0 
-0.10135 -0.0600568 0.0360554 6.57027e-012 -1.10895e-008 -5.10965e-006 0 -0 0 0 -0 0 0 -0 0 -0.711778 0.290757 -2.27413e-010 -4.39848 -23.6732 -19.108 -24.9497 -30.9574 -70.905 3.67667 5.11342 6.1621 -40.5316 -43.5896 103.283 -7.10789 -4.81548 2.69559 -7.40342 -2.98992 -6.72733 5.89092 0.508958 -5.4973 -5.3917 11.1257 1.19015 -12.1062 -9.35422 19.4153 3.33565 -41.2194 -1.46018 4.39848 23.6732 -19.108 24.9497 30.9574 70.905 3.67667 -5.11342 -6.1621 40.5316 43.5896 103.283 7.10789 4.81548 -2.69559 7.40342 2.98992 6.72733 -5.89092 -0.508958 5.4973 5.3917 -11.1257 -1.19015 12.1062 9.35422 -19.4153 -3.33565 41.2194 1.46018 -0.196854 -0.658113 0.00226109 0.0240216 0.17282 0.658122 0 -0.185449 -0.658113 0.00213009 2.12374e-008 0.185437 0.658122 0 
-0.10135 -0.0600568 0.0360398 1.09275e-012 -1.65796e-008 -5.10963e-006 0 -0 0 0 -0 0 0 -0 0 -0.711751 0.290736 -8.5494e-015 -4.39848 -23.6732 -19.108 -24.9496 -30.9577 -70.9049 3.67667 5.11342 6.1621 -40.5316 -43.5896 103.283 -7.10789 -4.81548 2.69559 -7.40342 -2.98992 -6.72733 5.89092 0.508958 -5.4973 -5.3917 11.1257 1.19015 -12.1062 -9.35422 19.4153 3.33565 -41.2194 -1.46018 4.39848 23.6732 -19.108 24.9496 30.9577 70.9049 3.67667 -5.11342 -6.1621 40.5316 43.5896 103.283 7.10789 4.81548 -2.69559 7.40342 2.98992 6.72733 -5.89092 -0.508958 5.4973 5.3917 -11.1257 -1.19015 12.1062 9.35422 -19.4153 -3.33565 41.2194 1.46018 -0.197841 -0.658117 0.00227243 0.0240216 0.173806 0.658126 0 -0.186435 -0.658117 0.00214143 0 0.186423 0.658126 0 
-0.10135 -0.0600568 0.0360396 1.97495e-012 -1.66268e-008 -5.10963e-006 0 -0 0 0 -0 0 0 -0 0 -0.711751 0.290736 -3.88256e-019 -4.39848 -23.6732 -19.108 -24.9496 -30.9577 -70.9049 3.67667 5.11342 6.1621 -40.5316 -43.5896 103.283 -7.10789 -4.81548 2.69559 -7.40342 -2.98992 -6.72733 5.89092 0.508958 -5.4973 -5.3917 11.1257 1.19015 -12.1062 -9.35422 19.4153 3.33565 -41.2194 -1.46018 4.39848 23.6732 -19.108 24.9496 30.9577 70.9049 3.67667 -5.11342 -6.1621 40.5316 43.5896 103.283 7.10789 4.81548 -2.69559 7.40342 2.98992 6.72733 -5.89092 -0.508958 5.4973 5.3917 -11.1257 -1.19015 12.1062 9.35422 -19.4153 -3.33565 41.2194 1.46018 -0.197851 -0.658117 0.00227255 0.0240216 0.173816 0.658126 0 -0.186445 -0.658117 0.00214154 0 0.186433 0.658126 0 
-0.10135 -0.0600568 0.0360396 -1.62038e-012 -1.66272e-008 -5.10963e-006 0 -0 0 0 -0 0 0 -0 0 -0.711751 0.290736 -0 -4.39848 -23.6732 -19.108 -24.9496 -30.9577 -70.9049 3.67667 5.11342 6.1621 -40.5316 -43.5896 103.283 -7.10789 -4.81548 2.69559 -7.40342 -2.98992 -6.72733 5.89092 0.508958 -5.4973 -5.3917 11.1257 1.19015 -12.1062 -9.35422 19.4153 3.33565 -41.2194 -1.46018 4.39848 23.6732 -19.108 24.9496 30.9577 70.9049 3.67667 -5.11342 -6.1621 40.5316 43.5896 103.283 7.10789 4.81548 -2.69559 7.40342 2.98992 6.72733 -5.89092 -0.508958 5.4973 5.3917 -11.1257 -1.19015 12.1062 9.35422 -19.4153 -3.33565 41.2194 1.46018 -0.197851 -0.658117 0.00227255 0.0240216 0.173816 0.658126 0 -0.186445 -0.658117 0.00214154 2.37861e-006 0.18643 0.658126 0 
-0.10135 -0.0600568 0.0360396 2.04664e-012 -1.66272e-008 -5.10963e-006 0 -0 0 0 -0 0 0 -0 0 -0.711751 0.290736 -3.88256e-019 -4.39848 -23.6732 -19.108 -24.9496 -30.9577 -70.9049 3.67667 5.11342 6.1621 -40.5316 -43.5896 103.283 -7.10789 -4.81548 2.69559 -7.40342 -2.98992 -6.72733 5.89092 0.508958 -5.4973 -5.3917 11.1257 1.19015 -12.1062 -9.35422 19.4153 3.33565 -41.2194 -1.46018 4.39848 23.6732 -19.108 24.9496 30.9577 70.9049 3.67667 -5.11342 -6.1621 40.5316 43.5896 103.283 7.10789 4.81548 -2.69559 7.40342 2.98992 6.72733 -5.89092 -0.508958 5.4973 5.3917 -11.1257 -1.19015 12.1062 9.35422 -19.4153 -3.33565 41.2194 1.46018 -0.197851 -0.658117 0.00227255 0.0240216 0.173816 0.658126 0 -0.186445 -0.658117 0.00214154 4.22596e-008 0.186433 0.658126 0 
-0.10135 -0.0600568 0.0360396 -2.13154e-012 -1.66272e-008 -5.10963e-006 0 -0 0 0 -0 0 0 -0 0 -0.711751 0.290736 -0 -4.39848 -23.6732 -19.108 -24.9496 -30.9577 -70.9049 3.67667 5.11342 6.1621 -40.5316 -43.5896 103.283 -7.10789 -4.81548 2.69559 -7.40342 -2.98992 -6.72733 5.89092 0.508958 -5.4973 -5.3917 11.1257 1.19015 -12.1062 -9.35422 19.4153 3.33565 -41.2194 -1.46018 4.39848 23.6732 -19.108 24.9496 30.9577 70.9049 3.67667 -5.11342 -6.1621 40.5316 43.5896 103.283 7.10789 4.81548 -2.69559 7.40342 2.98992 6.72733 -5.89092 -0.508958 5.4973 5.3917 -11.1257 -1.19015 12.1062 9.35422 -19.4153 -3.33565 41.2194 1.46018 -0.197851 -0.658117 0.00227255 0.0240216 0.173816 0.658126 0 -0.186445 -0.658117 0.00214154 2.77501e-006 0.186433 0.658126 0 
-0.10135 -0.0600568 0.0360396 4.89834e-013 -1.66272e-008 -5.10963e-006 0 -0 0 0 -0 0 0 -0 0 -0.711751 0.290736 -0 -4.39848 -23.6732 -19.108 -24.9496 -30.9577 -70.9049 3.67667 5.11342 6.1621 -40.5316 -43.5896 103.283 -7.10789 -4.81548 2.69559 -7.40342 -2.98992 -6.72733 5.89092 0.508958 -5.4973 -5.3917 11.1257 1.19015 -12.1062 -9.35422 19.4153 3.33565 -41.2194 -1.46018 4.39848 23.6732 -19.108 24.9496 30.9577 70.9049 3.67667 -5.11342 -6.1621 40.5316 43.5896 103.283 7.10789 4.81548 -2.69559 7.40342 2.98992 6.72733 -5.89092 -0.508958 5.4973 5.3917 -11.1257 -1.19015 12.1062 9.35422 -19.4153 -3.33565 41.2194 1.46018 -0.197851 -0.658117 0.00227255 0.0240216 0.173816 0.658126 0 -0.186447 -0.658117 0.00214156 1.73284e-006 0.186432 0.658126 0 
-0.10135 -0.0600568 0.0360396 -3.23353e-012 -1.66272e-008 -5.10963e-006 0 -0 0 0 -0 0 0 -0 0 -0.711751 0.290736 -0 -4.39848 -23.6732 -19.108 -24.9496 -30.9577 -70.9049 3.67667 5.11342 6.1621 -40.5316 -43.5896 103.283 -7.10789 -4.81548 2.69559 -7.40342 -2.98992 -6.72733 5.89092 0.508958 -5.4973 -5.3917 11.1257 1.19015 -12.1062 -9.35422 19.4153 3.33565 -41.2194 -1.46018 4.39848 23.6732 -19.108 24.9496 30.9577 70.9049 3.67667 -5.11342 -6.1621 40.5316 43.5896 103.283 7.10789 4.81548 -2.69559 7.40342 2.98992 6.72733 -5.89092 -0.508958 5.4973 5.3917 -11.1257 -1.19015 12.1062 9.35422 -19.4153 -3.33565 41.2194 1.46018 -0.197851 -0.658117 0.00227255 0.0240216 0.173816 0.658126 0 -0.186445 -0.658117 0.00214154 4.26887e-008 0.186433 0.658126 0 
-0.10135 -0.0600568 0.0360396 -4.43878e-012 -1.66272e-008 -5.10963e-006 0 -0 0 0 -0 0 0 -0 0 -0.711751 0.290736 3.88256e-019 -4.39848 -23.6732 -19.108 -24.9496 -30.9577 -70.9049 3.67667 5.11342 6.1621 -40.5316 -43.5896 103.283 -7.10789 -4.81548 2.69559 -7.40342 -2.98992 -6.72733 5.89092 0.508958 -5.4973 -5.3917 11.1257 1.19015 -12.1062 -9.35422 19.4153 3.33565 -41.2194 -1.46018 4.39848 23.6732 -19.108 24.9496 30.9577 70.9049 3.67667 -5.11342 -6.1621 40.5316 43.5896 103.283 7.10789 4.81548 -2.69559 7.40342 2.98992 6.72733 -5.89092 -0.508958 5.4973 5.3917 -11.1257 -1.19015 12.1062 9.35422 -19.4153 -3.33565 41.2194 1.46018 -0.197851 -0.658117 0.00227255 0.0240216 0.173816 0.658126 0 -0.186445 -0.658117 0.00214154 2.34843e-006 0.186431 0.658126 0 
-0.10135 -0.0600568 0.0360396 3.57891e-013 -1.66272e-008 -5.10963e-006 0 -0 0 0 -0 0 0 -0 0 -0.711751 0.290736 3.88256e-019 -4.39848 -23.6732 -19.108 -24.9496 -30.9577 -70.9049 3.67667 5.11342 6.1621 -40.5316 -43.5896 103.283 -7.10789 -4.81548 2.69559 -7.40342 -2.98992 -6.72733 5.89092 0.508958 -5.4973 -5.3917 11.1257 1.19015 -12.1062 -9.35422 19.4153 3.33565 -41.2194 -1.46018 4.39848 23.6732 -19.108 24.9496 30.9577 70.9049 3.67667 -5.11342 -6.1621 40.5316 43.5896 103.283 7.10789 4.81548 -2.69559 7.40342 2.98992 6.72733 -5.89092 -0.508958 5.4973 5.3917 -11.1257 -1.19015 12.1062 9.35422 -19.4153 -3.33565 41.2194 1.46018 -0.197851 -0.658117 0.00227255 0.0240216 0.173816 0.658126 0 -0.186445 -0.658117 0.00214154 7.24451e-008 0.18643 0.658126 0 
-0.10135 -0.0600568 0.0360396 1.41959e-012 -1.66272e-008 -5.10963e-006 0 -0 0 0 -0 0 0 -0 0 -0.711751 0.290736 -3.88256e-019 -4.39848 -23.6732 -19.108 -24.9496 -30.9577 -70.9049 3.67667 5.11342 6.1621 -40.5316 -43.5896 103.283 -7.10789 -4.81548 2.69559 -7.40342 -2.98992 -6.72733 5.89092 0.508958 -5.4973 -5.3917 11.1257 1.19015 -12.1062 -9.35422 19.4153 3.33565 -41.2194 -1.46018 4.39848 23.6732 -19.108 24.9496 30.9577 70.9049 3.67667 -5.11342 -6.1621 40.5316 43.5896 103.283 7.10789 4.81548 -2.69559 7.40342 2.98992 6.72733 -5.89092 -0.508958 5.4973 5.3917 -11.1257 -1.19015 12.1062 9.35422 -19.4153 -3.33565 41.2194 1.46018 -0.197851 -0.658117 0.00227255 0.0240216 0.173816 0.658126 0 -0.186445 -0.658117 0.00214154 1.65205e-006 0.186433 0.658126 0 
-0.10135 -0.0600568 0.0360396 -2.33866e-013 -1.66272e-008 -5.10963e-006 0 -0 0 0 -0 0 0 -0 0 -0.711751 0.290736 -3.88256e-019 -4.39848 -23.6732 -19.108 -24.9496 -30.9577 -70.9049 3.67667 5.11342 6.1621 -40.5316 -43.5896 103.283 -7.10789 -4.81548 2.69559 -7.40342 -2.98992 -6.72733 5.89092 0.508958 -5.4973 -5.3917 11.1257 1.19015 -12.1062 -9.35422 19.4153 3.33565 -41.2194 -1.46018 4.39848 23.6732 -19.108 24.9496 30.9577 70.9049 3.67667 -5.11342 -6.1621 40.5316 43.5896 103.283 7.10789 4.81548 -2.69559 7.40342 2.98992 6.72733 -5.89092 -0.508958 5.4973 5.3917 -11.1257 -1.19015 12.1062 9.35422 -19.4153 -3.33565 41.2194 1.46018 -0.197851 -0.658117 0.00227255 0.0240216 0.173816 0.658126 0 -0.186445 -0.658117 0.00214154 1.70755e-006 0.186431 0.658126 0 
-0.10135 -0.0600568 0.0360396 2.50261e-014 -1.66272e-008 -5.10963e-006 0 -0 0 0 -0 0 0 -0 0 -0.711751 0.290736 -0 -4.39848 -23.6732 -19.108 -24.9496 -30.9577 -70.9049 3.67667 5.11342 6.1621 -40.5316 -43.5896 103.283 -7.10789 -4.81548 2.69559 -7.40342 -2.98992 -6.72733 5.89092 0.508958 -5.4973 -5.3917 11.1257 1.19015 -12.1062 -9.35422 19.4153 3.33565 -41.2194 -1.46018 4.39848 23.6732 -19.108 24.9496 30.9577 70.9049 3.67667 -5.11342 -6.1621 40.5316 43.5896 103.283 7.10789 4.81548 -2.69559 7.40342 2.98992 6.72733 -5.89092 -0.508958 5.4973 5.3917 -11.1257 -1.19015 12.1062 9.35422 -19.4153 -3.33565 41.2194 1.46018 -0.197851 -0.658117 0.00227255 0.0240216 0.173816 0.658126 0 -0.186445 -0.658117 0.00214154 1.70755e-006 0.186431 0.658126 0 
